<?xml version="1.0" encoding="utf-8"?>
<!-- Generator: Adobe Illustrator 25.2.1, SVG Export Plug-In . SVG Version: 6.00 Build 0)  -->
<svg version="1.1" id="Icons" xmlns="http://www.w3.org/2000/svg" xmlns:xlink="http://www.w3.org/1999/xlink" x="0px" y="0px"
	 viewBox="0 0 432 432" style="enable-background:new 0 0 432 432;" xml:space="preserve">
<style type="text/css">
	.st0{fill:#111F27;}
</style>
<path class="st0" d="M387.4,356.2c0,16.3-13.2,30.5-29.4,30.5H45.4l0.5-312.5c0-16.3,13.2-29.5,29.4-29.5c0,0,0,0,0,0h73.1V0H54.6
	C24.5,0,0,24.5,0,54.6c0,0,0,0,0,0V432h377.4c30.2,0,54.6-24.5,54.6-54.6l0,0v-93.2h-44.8L387.4,356.2z"/>
<polygon class="st0" points="409.8,214.8 409.8,170.2 293.3,170.2 431.6,31.8 399.8,0 261.8,138 261.6,21.7 216.7,21.7 216.7,214.8 
	"/>
</svg>
