<svg id="Icons" xmlns="http://www.w3.org/2000/svg" viewBox="0 0 432 432"><defs><style>.cls-1{fill:#111f27;}</style></defs><title>icons_PA25</title><path class="cls-1" d="M215.75,0a22.52,22.52,0,0,0-19.51,11.24A23.74,23.74,0,0,0,195,13.66L2.81,398.62c-.3.54-.58,1.09-.83,1.66H2A22.49,22.49,0,0,0,22.53,432H409.47A22.49,22.49,0,0,0,430,400.28h0c-.25-.57-.53-1.12-.83-1.66L237,13.66a23.74,23.74,0,0,0-1.21-2.42A22.52,22.52,0,0,0,216.25,0h-.5ZM360.44,386.91H59.55l157-314.48,157,314.48Z"/><path class="cls-1" d="M238.5,291.13a7.36,7.36,0,0,1-7.36,7.36H193.5V177.29a7.36,7.36,0,0,1,7.36-7.36H238.5Z"/><path class="cls-1" d="M238.5,356.9a7.37,7.37,0,0,1-7.36,7.37H193.5V327.45a7.36,7.36,0,0,1,7.36-7.36H238.5Z"/></svg>