<?xml version="1.0" encoding="utf-8"?>
<!-- Generator: Adobe Illustrator 22.1.0, SVG Export Plug-In . SVG Version: 6.00 Build 0)  -->
<svg version="1.1" id="Layer_1" xmlns="http://www.w3.org/2000/svg" xmlns:xlink="http://www.w3.org/1999/xlink" x="0px" y="0px"
	 viewBox="0 0 38 38" style="enable-background:new 0 0 38 38;" xml:space="preserve">
<style type="text/css">
	.st0{fill:#F04E4C;}
</style>
<g>
	<path class="st0" d="M5.9,6.5c0-0.1,0-0.2-0.1-0.3c0-0.1-0.1-0.2-0.1-0.3C5.6,5.8,4.5,3.6,4.5,3.6L32.4,1l0.8,1.9
		c0,0-1.6,2.7-1.7,2.8v0c-0.1,0.1-0.1,0.2-0.2,0.3v0c0,0.1-0.1,0.2-0.1,0.3v0c0,0.1,0,0.2,0,0.3v24.7c0,0.1,0,0.2,0,0.3v0
		c0,0.1,0.1,0.2,0.1,0.3c0,0,0,0,0,0.1c0,0.1,0.1,0.2,0.1,0.3c0,0,0,0,0,0c0.1,0.1,1.7,2.5,1.7,2.5l-0.8,1.9l-12.7-1.2
		c0,0,1.6-2.1,1.6-2.1c0.1-0.1,0.1-0.2,0.2-0.3c0-0.1,0.1-0.2,0.1-0.3c0-0.1,0-0.2,0-0.4V7.8l-6.3,0.5v22.2c0,0.1,0,0.2,0,0.3v0
		c0,0.1,0,0.2,0.1,0.3c0,0,0,0,0,0.1c0,0.1,0.1,0.2,0.1,0.3c0,0,0,0,0,0c0.1,0.1,1.3,2.2,1.3,2.2l-2.3,1.6L4.5,34.2
		c0,0,1.1-1.9,1.2-1.9c0.1-0.1,0.1-0.2,0.1-0.3c0-0.1,0.1-0.2,0.1-0.3c0-0.1,0-0.2,0-0.3V6.8C5.9,6.7,5.9,6.6,5.9,6.5z"/>
</g>
</svg>
